<svg width="85" height="55" viewBox="0 0 85 55" fill="none" xmlns="http://www.w3.org/2000/svg">
<path d="M37.9525 41.5928C37.7424 41.6123 37.5917 41.6383 37.4404 41.6394C35.7612 41.6423 34.0826 41.6376 32.4033 41.6431C32.0061 41.6445 31.7005 41.5008 31.4562 41.1855C29.9948 39.2979 28.5164 37.4238 27.0713 35.5245C26.7254 35.0693 26.3484 34.8788 25.7744 34.9083C24.8777 34.9539 23.9772 34.9206 23.0417 34.9206C23.0417 37.1518 23.0417 39.3547 23.0417 41.5826C21.3329 41.5826 19.6606 41.5826 17.9805 41.5826C17.9805 34.748 17.9805 27.9272 17.9805 21.0878C18.0922 21.077 18.1899 21.0584 18.2869 21.0592C21.7898 21.0615 25.2927 21.0352 28.7949 21.0808C30.6821 21.1056 32.4646 21.5732 34.0221 22.7137C35.6409 23.899 36.4383 25.5093 36.5182 27.4898C36.5733 28.8671 36.36 30.1879 35.6045 31.3786C34.8947 32.4966 33.8685 33.2298 32.6818 33.7655C32.4832 33.8553 32.2831 33.9428 32.0488 34.0466C34.0236 36.5697 35.969 39.0573 37.9525 41.5928ZM23.065 30.5634C24.9584 30.5185 26.8231 30.5077 28.6839 30.4078C29.2269 30.3783 29.8048 30.1802 30.281 29.9092C31.2351 29.3672 31.4849 28.4606 31.3135 27.4162C31.1607 26.4849 30.5479 26.0064 29.6838 25.7842C29.4589 25.7261 29.2284 25.6658 28.9981 25.6549C27.7562 25.5976 26.5144 25.5457 25.2718 25.5117C24.5427 25.4916 23.8119 25.5078 23.065 25.5078C23.065 27.1933 23.065 28.8299 23.065 30.5634Z" fill="black"/>
<path d="M73.1784 37.1959C77.0453 37.1959 80.825 37.1959 84.6242 37.1959C84.6242 38.6776 84.6242 40.1377 84.6242 41.619C78.4228 41.619 72.2237 41.619 65.987 41.619C65.987 41.0235 65.9848 40.4376 65.9882 39.8506C65.9896 39.4285 66.0128 39.0069 65.9988 38.5863C65.987 38.2464 66.1362 37.9941 66.3518 37.7565C68.5633 35.3238 70.7723 32.8904 72.9815 30.4563C74.3845 28.9102 75.7863 27.3633 77.1878 25.8157C77.2671 25.729 77.3377 25.6345 77.4872 25.4526C77.1709 25.4526 76.9538 25.4526 76.7363 25.4526C73.4771 25.4526 70.2175 25.4526 66.9583 25.4526C66.3904 25.4526 66.3463 25.4139 66.3449 24.8549C66.3415 23.7338 66.3423 22.612 66.3449 21.4909C66.3456 21.0721 66.4301 20.9893 66.8577 20.9893C72.6752 20.9923 78.4934 20.9978 84.3108 20.9939C84.6062 20.9939 84.6903 21.0829 84.6855 21.374C84.6745 22.0499 84.6911 22.7266 84.7135 23.4017C84.7381 24.1178 84.4978 24.7341 84.0239 25.2559C82.6408 26.7749 81.2445 28.2823 79.8607 29.8013C77.7216 32.1487 75.5883 34.5016 73.454 36.8527C73.3753 36.9396 73.3063 37.0357 73.1784 37.1959Z" fill="black"/>
<path d="M16.883 25.5857C12.9279 25.5857 9.00298 25.5857 5.05014 25.5857C5.05014 26.8485 5.05014 28.0942 5.05014 29.3724C8.54841 29.3724 12.0467 29.3724 15.5682 29.3724C15.5682 30.8743 15.5682 32.3446 15.5682 33.8442C12.0692 33.8442 8.58177 33.8442 5.05172 33.8442C5.05172 36.4526 5.05172 39.0314 5.05172 41.6259C3.35609 41.6259 1.70236 41.6259 0.0214844 41.6259C0.0214844 34.8306 0.0214844 28.0353 0.0214844 21.2207C5.64121 21.2207 11.2516 21.2207 16.883 21.2207C16.883 22.6724 16.883 24.1093 16.883 25.5857Z" fill="black"/>
<path d="M58.2593 41.632C56.5217 41.632 54.844 41.632 53.1258 41.632C53.1258 36.2946 53.1258 30.9642 53.1258 25.5958C50.8912 25.5958 48.6966 25.5958 46.4844 25.5958C46.4844 24.0861 46.4844 22.6143 46.4844 21.1162C52.6145 21.1162 58.7438 21.1162 64.8872 21.1162C64.8872 22.5949 64.8872 24.0582 64.8872 25.5625C62.6867 25.5625 60.4932 25.5625 58.2593 25.5625C58.2593 30.9355 58.2593 36.2667 58.2593 41.632Z" fill="black"/>
<path d="M39.5566 21.0859C41.2281 21.0859 42.8805 21.0859 44.5582 21.0859C44.5582 27.9292 44.5582 34.7616 44.5582 41.6236C42.9022 41.6236 41.2413 41.6236 39.5566 41.6236C39.5566 34.7941 39.5566 27.9602 39.5566 21.0859Z" fill="black"/>
<path d="M54.3775 51.2355C55.1684 52.4154 55.9387 53.5635 56.744 54.7636C55.772 54.7636 54.8646 54.7753 53.9576 54.7511C53.8264 54.7482 53.6637 54.5993 53.5785 54.4746C53.1013 53.7794 52.6351 53.0765 52.1814 52.3667C51.7887 51.7532 51.3802 51.5776 50.7395 51.8005C50.7395 52.7561 50.7395 53.7189 50.7395 54.7078C49.8902 54.7078 49.0648 54.7078 48.1982 54.7078C48.1982 54.5443 48.1982 54.402 48.1982 54.2594C48.1945 51.4174 48.1904 48.5753 48.1875 45.734C48.1875 45.6116 48.193 45.4898 48.196 45.3677C48.2029 45.1114 48.3377 44.9699 48.5916 44.9758C50.1911 45.0124 51.7957 44.9923 53.3889 45.1129C54.8583 45.2244 55.8076 46.2364 55.9939 47.7019C56.1364 48.8283 55.9814 49.8788 55.0861 50.6928C54.8745 50.8839 54.6324 51.0412 54.3775 51.2355ZM50.7509 49.2962C51.2645 49.2962 51.7619 49.3013 52.2582 49.2929C52.4676 49.2892 52.6832 49.2812 52.8849 49.2302C53.2967 49.1272 53.5326 48.7634 53.5263 48.2934C53.5208 47.8691 53.3331 47.5718 52.9385 47.523C52.217 47.435 51.4893 47.4016 50.7509 47.3441C50.7509 48.0239 50.7509 48.6395 50.7509 49.2962Z" fill="black"/>
<path d="M45.7198 49.8935C45.6971 52.4323 44.1163 54.4299 41.7241 54.9128C39.2073 55.4213 36.5653 53.6507 36.1239 51.1299C35.833 49.4678 36.0308 47.8753 37.1626 46.5465C38.462 45.0223 40.1573 44.4782 42.0863 44.9875C44.0149 45.4968 45.1945 46.8061 45.5972 48.7711C45.6725 49.1381 45.6802 49.5187 45.7198 49.8935ZM43.1476 49.8627C43.1134 49.5847 43.1002 49.3625 43.0561 49.1458C42.8721 48.2416 42.0639 47.4478 41.1991 47.3092C40.2591 47.1585 39.3638 47.5926 38.8962 48.4814C38.3944 49.4344 38.4153 50.4101 38.948 51.3429C39.4446 52.213 40.2132 52.5947 41.2179 52.4301C42.1642 52.2742 42.7351 51.6912 42.9856 50.7903C43.0738 50.4735 43.101 50.1384 43.1476 49.8627Z" fill="black"/>
<path d="M16.584 52.9923C17.0626 52.3877 17.5435 51.7809 18.0407 51.152C18.313 51.3728 18.5635 51.5865 18.8257 51.7845C19.3841 52.2073 19.9814 52.5395 20.716 52.497C20.8587 52.4885 21.0286 52.4937 21.1364 52.4196C21.3257 52.2902 21.5987 52.1112 21.608 51.9411C21.6173 51.7669 21.3869 51.5136 21.1984 51.4105C20.882 51.2371 20.5166 51.1528 20.1707 51.0343C19.7929 50.9053 19.4105 50.7883 19.0359 50.6504C17.5931 50.1184 17.037 49.2817 17.0851 47.7325C17.1254 46.4316 17.9406 45.3602 19.2484 45.0166C21.0092 44.5535 22.5613 44.9964 23.9016 46.2189C24.0684 46.3714 24.0692 46.4844 23.9435 46.6633C23.5549 47.2166 23.1849 47.7835 22.7886 48.372C22.4612 48.1498 22.1595 47.9026 21.8213 47.7277C21.4622 47.5418 21.0728 47.4065 20.6849 47.2881C20.5251 47.2393 20.3064 47.2393 20.1629 47.3119C19.9504 47.4197 19.6735 47.5822 19.6192 47.7765C19.5478 48.0313 19.8046 48.2257 20.0636 48.3122C20.5267 48.468 20.9937 48.6103 21.4575 48.7636C21.7422 48.8574 22.03 48.9447 22.3053 49.0617C23.6806 49.6439 24.2988 50.6255 24.2042 52.0562C24.1173 53.3726 23.2292 54.4231 21.8927 54.7894C20.0621 55.291 17.6536 54.4795 16.584 52.9923Z" fill="black"/>
<path d="M29.1343 51.9332C29.1343 52.8979 29.1343 53.804 29.1343 54.7313C28.2997 54.7313 27.4968 54.7313 26.663 54.7313C26.6537 54.5666 26.6366 54.4148 26.6366 54.263C26.6312 51.4016 26.6281 48.5401 26.625 45.6779C26.625 45.5672 26.6281 45.4564 26.6351 45.3457C26.6498 45.1063 26.7824 44.9702 27.0183 44.9757C28.4284 45.0058 29.8448 44.971 31.2457 45.0986C32.9009 45.2496 33.8341 46.2462 34.0877 47.9076C34.3817 49.8359 33.2213 51.5416 31.3418 51.8636C30.7678 51.9622 30.1682 51.9149 29.5803 51.9325C29.45 51.9365 29.3197 51.9332 29.1343 51.9332ZM29.1847 49.5939C29.7439 49.5565 30.2753 49.5426 30.8012 49.4799C31.2689 49.4241 31.542 49.0798 31.58 48.5819C31.6211 48.0436 31.4303 47.6341 31.0006 47.5523C30.4095 47.439 29.8029 47.4067 29.1847 47.3378C29.1847 48.1144 29.1847 48.8202 29.1847 49.5939Z" fill="black"/>
<path d="M58.0195 47.4539C58.0195 46.6216 58.0195 45.8475 58.0195 45.0508C60.5701 45.0508 63.1096 45.0508 65.6661 45.0508C65.6661 45.8321 65.6661 46.6047 65.6661 47.4121C64.8248 47.4121 63.9847 47.4121 63.1049 47.4121C63.1049 49.8603 63.1049 52.2734 63.1049 54.7091C62.2493 54.7091 61.4334 54.7091 60.5756 54.7091C60.5756 52.2906 60.5756 49.8889 60.5756 47.4539C59.7053 47.4539 58.8762 47.4539 58.0195 47.4539Z" fill="black"/>
<path d="M66.8242 47.7591C66.8242 47.2813 66.8242 46.8307 66.8242 46.3584C72.1454 46.3584 77.4533 46.3584 82.7844 46.3584C82.7844 46.8299 82.7844 47.289 82.7844 47.7591C77.4666 47.7591 72.1656 47.7591 66.8242 47.7591Z" fill="black"/>
<path d="M15.9074 46.3359C15.9074 46.8203 15.9074 47.2819 15.9074 47.7619C10.6034 47.7619 5.31644 47.7619 0 47.7619C0 47.2926 0 46.8243 0 46.3359C5.29473 46.3359 10.5817 46.3359 15.9074 46.3359Z" fill="black"/>
<path d="M66.8125 50.1593C66.8125 49.6808 66.8125 49.2092 66.8125 48.7197C71.4122 48.7197 75.9994 48.7197 80.6093 48.7197C80.6093 49.1982 80.6093 49.6683 80.6093 50.1593C76.0089 50.1593 71.4214 50.1593 66.8125 50.1593Z" fill="black"/>
<path d="M15.9136 48.7148C15.9136 49.2073 15.9136 49.6693 15.9136 50.1555C11.327 50.1555 6.75524 50.1555 2.16406 50.1555C2.16406 49.681 2.16406 49.2095 2.16406 48.7148C6.73896 48.7148 11.3115 48.7148 15.9136 48.7148Z" fill="black"/>
<path d="M47.8722 10.1953C48.7876 11.7778 49.67 13.3053 50.5895 14.8948C50.3893 14.8948 50.2604 14.8948 50.1311 14.8948C47.9754 14.8948 45.819 14.8932 43.6634 14.8955C42.9863 14.8963 42.3082 14.9033 41.6311 14.918C41.1216 14.9288 40.7554 14.7415 40.5614 14.246C40.4776 14.0315 40.3476 13.8357 40.2109 13.5809C42.8783 13.5809 45.5119 13.5809 48.2344 13.5809C47.9497 13.0839 47.7363 12.6379 47.4556 12.2392C47.1246 11.7685 47.064 11.3473 47.4571 10.8859C47.6132 10.7032 47.7094 10.4709 47.8722 10.1953Z" fill="black"/>
<path d="M37.9327 10.207C39.2809 12.5289 40.6027 14.8066 41.956 17.1378C42.251 16.6252 42.5423 16.1615 42.7907 15.6753C42.9964 15.2727 43.2645 15.0613 43.7392 15.1202C44.0334 15.1566 44.335 15.1271 44.7057 15.1271C43.7851 16.722 42.8906 18.2697 41.9722 19.8599C41.8304 19.64 41.7062 19.4627 41.5978 19.2761C40.2162 16.8986 38.8408 14.5179 37.4533 12.1441C37.1936 11.6997 37.1616 11.3072 37.5132 10.8953C37.673 10.7064 37.7759 10.4687 37.9327 10.207Z" fill="black"/>
<path d="M45.9778 9.66526C44.6274 7.33876 43.3031 5.05868 41.949 2.72523C41.6547 3.23853 41.3608 3.70227 41.118 4.19159C40.9127 4.60577 40.6239 4.78617 40.1633 4.74126C39.8694 4.71262 39.5707 4.73587 39.207 4.73587C40.1298 3.13555 41.0236 1.58558 41.9372 0C42.018 0.124648 42.0838 0.218327 42.1404 0.316652C43.5676 2.77013 44.9896 5.22669 46.426 7.67474C46.7052 8.15089 46.747 8.57285 46.3687 9.01414C46.2206 9.1868 46.1288 9.40823 45.9778 9.66526Z" fill="black"/>
<path d="M44.2227 13.2387C45.5521 10.9362 46.8482 8.69176 48.1978 6.35441C47.6575 6.35441 47.1865 6.31649 46.724 6.36372C46.1634 6.42099 45.774 6.27469 45.5701 5.71648C45.4886 5.49428 45.338 5.29764 45.1998 5.05762C46.9903 5.05762 48.7378 5.05762 50.5342 5.05762C50.2007 5.64062 49.8895 6.1864 49.5762 6.73145C48.4245 8.72971 47.2695 10.7256 46.123 12.7277C45.8927 13.1303 45.5892 13.3192 45.1117 13.2465C44.8431 13.2054 44.5639 13.2387 44.2227 13.2387Z" fill="black"/>
<path d="M35.7079 13.5326C36.306 13.5326 36.849 13.5527 37.3897 13.5264C37.8192 13.5047 38.1156 13.6355 38.2931 14.0435C38.4103 14.3129 38.5741 14.5622 38.7321 14.8487C36.939 14.8487 35.1859 14.8487 33.3848 14.8487C33.467 14.6869 33.5345 14.5398 33.6144 14.4004C34.9927 12.0066 36.3781 9.6166 37.7494 7.21886C38.0179 6.74967 38.3684 6.52131 38.9198 6.60183C39.1549 6.6359 39.3992 6.60722 39.7041 6.60722C38.3599 8.9353 37.0452 11.2138 35.7079 13.5326Z" fill="black"/>
<path d="M43.7476 6.3515C41.049 6.3515 38.418 6.3515 35.7131 6.3515C36.0032 6.85629 36.2444 7.32779 36.5353 7.76599C36.7906 8.15077 36.8115 8.48602 36.5252 8.86071C36.3476 9.093 36.2219 9.36473 36.0435 9.66899C35.1352 8.10201 34.2549 6.58298 33.3496 5.02219C33.4947 5.01368 33.5978 5.00206 33.7018 5.00206C36.5368 4.9974 39.3727 5.00206 42.2076 4.98347C42.784 4.97958 43.2006 5.13212 43.3986 5.71666C43.4673 5.92104 43.6062 6.10067 43.7476 6.3515Z" fill="black"/>
<path d="M66.8047 52.4895C66.8047 51.9992 66.8047 51.5372 66.8047 51.0547C70.4808 51.0547 74.1412 51.0547 77.8254 51.0547C77.8254 51.527 77.8254 51.997 77.8254 52.4895C74.1607 52.4895 70.4992 52.4895 66.8047 52.4895Z" fill="black"/>
<path d="M4.95898 52.4967C4.95898 51.9965 4.95898 51.5342 4.95898 51.0527C8.61239 51.0527 12.2518 51.0527 15.9053 51.0527C15.9053 51.5397 15.9053 52.0112 15.9053 52.4967C12.2518 52.4967 8.61937 52.4967 4.95898 52.4967Z" fill="black"/>
</svg>
